<svg xmlns="http://www.w3.org/2000/svg" width="480" height="600" viewBox="0 0 480 600" fill="#0000007a"><circle cx="250" cy="528" r="0.8"/><circle cx="31" cy="237" r="0.6"/><circle cx="121" cy="149" r="0.8"/><circle cx="286" cy="146" r="0.9"/><circle cx="230" cy="67" r="0.6"/><circle cx="174" cy="272" r="0.6"/><circle cx="15" cy="342" r="0.6"/><circle cx="393" cy="202" r="0.8"/><circle cx="125" cy="224" r="0.6"/><circle cx="135" cy="407" r="0.5"/><circle cx="198" cy="77" r="0.7"/><circle cx="431" cy="577" r="0.8"/><circle cx="306" cy="134" r="0.6"/><circle cx="266" cy="22" r="0.7"/><circle cx="464" cy="228" r="0.7"/><circle cx="80" cy="197" r="0.5"/><circle cx="67" cy="29" r="0.8"/><circle cx="76" cy="463" r="0.8"/><circle cx="9" cy="530" r="0.7"/><circle cx="76" cy="74" r="0.6"/><circle cx="362" cy="417" r="0.7"/><circle cx="343" cy="445" r="0.8"/><circle cx="60" cy="300" r="0.6"/><circle cx="311" cy="365" r="0.7"/><circle cx="395" cy="343" r="0.8"/><circle cx="16" cy="276" r="0.6"/></svg>
